Coordinates
version=1
nRows=34
nColumns=34
inDegrees=no

Units are S.I. units (second, meters, Newtons, ...)
If the header above contains a line with 'inDegrees', this indicates whether rotational values are in degrees (yes) or radians (no).

endheader
time	pelvis_tilt	pelvis_list	pelvis_rotation	pelvis_tx	pelvis_ty	pelvis_tz	hip_flexion_r	hip_adduction_r	hip_rotation_r	knee_angle_r	ankle_angle_r	subtalar_angle_r	mtp_angle_r	hip_flexion_l	hip_adduction_l	hip_rotation_l	knee_angle_l	ankle_angle_l	subtalar_angle_l	mtp_angle_l	lumbar_extension	lumbar_bending	lumbar_rotation	arm_flex_r	arm_add_r	arm_rot_r	elbow_flex_r	pro_sup_r	arm_flex_l	arm_add_l	arm_rot_l	elbow_flex_l	pro_sup_l
0	-0.333669	0.192362	-0.158967	-5.86593	0.969343	0.182522	-0.334907	-0.255734	-0.136927	0.178066	-0.571323	0.211034	-0.614033	1.62984	-0.139228	-0.185115	1.83293	-0.0781892	-0.468101	-0.0539657	0.180814	-0.258424	0.31818	0.893308	-0.295224	0.0687463	1.72331	2.25472	-1.44562	-0.377561	-0.243907	0.944136	2.06616
0.004	-0.324345	0.212715	-0.177636	-5.82675	0.969709	0.181302	-0.369675	-0.291542	-0.133339	0.174009	-0.619928	0.190075	-0.0121761	1.62358	-0.147327	-0.19623	1.77017	-0.0632484	-0.447431	0.463164	0.187581	-0.274747	0.344919	0.925363	-0.302959	0.0691514	1.75495	2.24813	-1.4756	-0.351389	-0.317732	0.90705	2.16757
0.008	-0.328903	0.209109	-0.160455	-5.78913	0.970237	0.180893	-0.390957	-0.287423	-0.159571	0.189166	-0.603234	0.13466	-0.320746	1.62804	-0.129802	-0.188747	1.68669	-0.0375179	-0.395544	-0.0930267	0.190469	-0.274809	0.327535	0.953441	-0.301024	0.0680669	1.78693	2.23801	-1.50959	-0.320212	-0.34793	0.972276	1.96749
0.012	-0.317468	0.215969	-0.172499	-5.75052	0.971188	0.181156	-0.416681	-0.303658	-0.145218	0.217298	-0.616005	0.0882126	0.0635693	1.60947	-0.137117	-0.192708	1.61332	-0.0201062	-0.367604	-0.0634615	0.184348	-0.282653	0.335652	0.977213	-0.29977	0.0673651	1.82118	2.22708	-1.51883	-0.293392	-0.415518	0.931973	2.11198
0.016	-0.326995	0.198601	-0.161585	-5.71454	0.971658	0.182828	-0.417747	-0.278927	-0.121456	0.264893	-0.606136	-0.0125137	-0.37676	1.60593	-0.130992	-0.1703	1.52969	-0.00733818	-0.342693	-0.0544546	0.184896	-0.270128	0.319746	0.995685	-0.296934	0.0612446	1.85715	2.22995	-1.53552	-0.267179	-0.447483	0.973051	2.0487
0.02	-0.321136	0.18638	-0.159469	-5.67702	0.972886	0.183637	-0.429442	-0.266386	-0.101438	0.318393	-0.590985	-0.0746193	-0.35119	1.58187	-0.132516	-0.162302	1.44878	0.0179221	-0.303217	-0.101647	0.173238	-0.261896	0.313	1.00509	-0.300808	0.0545398	1.8949	2.2429	-1.5317	-0.245432	-0.47067	0.963665	1.9396
0.024	-0.315494	0.190737	-0.140158	-5.63939	0.974736	0.182055	-0.438877	-0.269371	-0.119182	0.386122	-0.541476	-0.102542	-0.219115	1.55287	-0.106481	-0.167481	1.35635	0.0299511	-0.277604	-0.134598	0.159268	-0.272789	0.289452	1.00805	-0.301862	0.0466496	1.93005	2.27019	-1.51891	-0.229348	-0.497464	0.94162	1.94265
0.028	-0.313339	0.18947	-0.118497	-5.60237	0.97662	0.180882	-0.442399	-0.263661	-0.130848	0.456656	-0.513554	-0.132543	-0.152892	1.5236	-0.0784068	-0.163832	1.26099	0.0388581	-0.244462	-0.200277	0.145483	-0.278656	0.261752	1.00342	-0.302765	0.0406738	1.96688	2.28295	-1.50152	-0.216284	-0.520814	0.918063	1.96176
0.032	-0.306967	0.187271	-0.10176	-5.56503	0.9785	0.180209	-0.446707	-0.259065	-0.137606	0.529432	-0.508929	-0.151721	-0.144912	1.48742	-0.0569358	-0.159922	1.16772	0.0519434	-0.19141	-0.22401	0.128193	-0.283673	0.237694	0.991624	-0.303924	0.035634	2.00357	2.28752	-1.48605	-0.205594	-0.532162	0.91358	1.96168
0.036	-0.301006	0.182627	-0.0818643	-5.52746	0.980621	0.179326	-0.447577	-0.252919	-0.145103	0.610809	-0.481229	-0.147188	-0.0472249	1.4492	-0.0335205	-0.156138	1.07788	0.0592354	-0.14997	-0.267542	0.110865	-0.285805	0.210216	0.970586	-0.305151	0.0266659	2.03456	2.31793	-1.4687	-0.197641	-0.533807	0.91575	1.93737
0.04	-0.294065	0.175675	-0.0678175	-5.49022	0.98273	0.17905	-0.444895	-0.242602	-0.144082	0.688085	-0.514739	-0.161343	-0.117613	1.4093	-0.0178547	-0.151747	0.992309	0.0624832	-0.10469	-0.280552	0.0929856	-0.284517	0.187746	0.94276	-0.306297	0.0233146	2.06626	2.31676	-1.44842	-0.19242	-0.533588	0.915789	1.94028
0.044	-0.280999	0.16354	-0.0591643	-5.45286	0.985296	0.178826	-0.441891	-0.232533	-0.135401	0.776761	-0.515645	-0.150364	-0.112829	1.36308	-0.00861169	-0.145972	0.916419	0.0651171	-0.0637544	-0.347051	0.0689671	-0.275817	0.169357	0.909953	-0.310442	0.0187896	2.09061	2.33936	-1.42458	-0.188893	-0.522455	0.925786	1.91369
0.048	-0.272431	0.151122	-0.0542621	-5.41577	0.987323	0.179295	-0.430589	-0.219527	-0.12046	0.865157	-0.529951	-0.151951	-0.156591	1.32247	-0.00714047	-0.14286	0.847153	0.0644162	-0.0204492	-0.357854	0.0515484	-0.265812	0.156827	0.87069	-0.312325	0.0177456	2.1142	2.33835	-1.40044	-0.189383	-0.512353	0.935498	1.92362
0.052	-0.262767	0.134561	-0.0485774	-5.37862	0.989253	0.180183	-0.41912	-0.200844	-0.109126	0.953007	-0.540929	-0.155501	-0.170711	1.28239	-0.00985422	-0.141611	0.787286	0.0591193	0.0203657	-0.405539	0.0324144	-0.25138	0.143828	0.826811	-0.312532	0.0156818	2.1293	2.35485	-1.37459	-0.192705	-0.496294	0.951812	1.91592
0.056	-0.257369	0.121961	-0.0475801	-5.34211	0.990843	0.18097	-0.396268	-0.188453	-0.0910326	1.05179	-0.52652	-0.14706	-0.177335	1.24714	-0.0168584	-0.1497	0.734001	0.0519547	0.0522985	-0.404435	0.0190613	-0.239311	0.137191	0.779117	-0.312802	0.0159985	2.14081	2.35474	-1.34664	-0.199129	-0.477494	0.968463	1.92692
0.06	-0.243731	0.110001	-0.0466537	-5.30543	0.992424	0.181761	-0.38201	-0.176522	-0.0776036	1.14693	-0.527172	-0.14427	-0.185184	1.2065	-0.0230872	-0.16031	0.69473	0.0482437	0.0735528	-0.414527	-0.0029723	-0.226296	0.127538	0.734605	-0.309842	0.0205482	2.14023	2.36488	-1.31686	-0.206864	-0.452192	0.98862	1.92507
0.064	-0.233479	0.0990197	-0.0437566	-5.26877	0.993758	0.182394	-0.363208	-0.164302	-0.0652507	1.24189	-0.511529	-0.13374	-0.240384	1.16934	-0.0276059	-0.17348	0.662128	0.0433568	0.0851806	-0.420219	-0.0228482	-0.215381	0.120644	0.681254	-0.310516	0.020907	2.14023	2.36361	-1.28434	-0.219322	-0.427561	1.01064	1.93219
0.068	-0.22649	0.0911198	-0.0376928	-5.23179	0.994794	0.182485	-0.345728	-0.154337	-0.0623666	1.32881	-0.482724	-0.138678	-0.236763	1.13574	-0.0274965	-0.18791	0.636269	0.0372422	0.0884098	-0.429814	-0.0393656	-0.207994	0.114603	0.622806	-0.310954	0.0117595	2.13328	2.39274	-1.25138	-0.236781	-0.400672	1.0377	1.93103
0.072	-0.209156	0.0866065	-0.0329327	-5.19535	0.996058	0.182854	-0.336067	-0.148859	-0.0606581	1.41735	-0.462231	-0.142842	-0.251068	1.09354	-0.026187	-0.204611	0.621261	0.033217	0.0835337	-0.413235	-0.0662952	-0.20112	0.100395	0.575086	-0.30289	0.016681	2.10974	2.3831	-1.21428	-0.251389	-0.369162	1.05579	1.94115
0.076	-0.196956	0.0854995	-0.0273212	-5.15861	0.997012	0.182846	-0.320026	-0.147626	-0.0601044	1.50538	-0.437265	-0.147354	-0.25873	1.0575	-0.0216912	-0.221884	0.614444	0.0263539	0.0662149	-0.421514	-0.0884241	-0.198972	0.0895563	0.522145	-0.297516	0.0153331	2.08327	2.39147	-1.1721	-0.262516	-0.347614	1.07608	1.93176
0.08	-0.183236	0.0845194	-0.0226957	-5.12173	0.998023	0.182665	-0.306684	-0.147765	-0.0642077	1.58423	-0.443153	-0.183494	-0.332271	1.02086	-0.0176404	-0.235923	0.61536	0.0211502	0.0514482	-0.403949	-0.110994	-0.196604	0.084521	0.463136	-0.292424	0.00864651	2.05173	2.39578	-1.13033	-0.282095	-0.319838	1.10122	1.93276
0.084	-0.180402	0.0897847	-0.0222079	-5.08581	0.998046	0.182452	-0.274454	-0.154574	-0.0530269	1.67769	-0.399461	-0.16824	-0.242638	0.994767	-0.0136006	-0.256659	0.617799	0.0108745	0.032137	-0.397885	-0.122314	-0.200359	0.0801557	0.409427	-0.284409	0.000538866	2.00905	2.41168	-1.08393	-0.298085	-0.290236	1.12254	1.90252
0.088	-0.169877	0.0906874	-0.012843	-5.04923	0.998736	0.182007	-0.254802	-0.158101	-0.0604704	1.75488	-0.403132	-0.191486	-0.22498	0.960534	-0.00521857	-0.267755	0.625194	0.00361405	0.0253588	-0.394873	-0.142679	-0.198641	0.0671317	0.356804	-0.273691	-0.00889387	1.95921	2.41561	-1.03484	-0.315112	-0.264192	1.13754	1.9082
0.092	-0.166006	0.0955789	-0.00831857	-5.01326	0.998787	0.181662	-0.2228	-0.166824	-0.0578117	1.83665	-0.387186	-0.194055	-0.296454	0.932334	0.00156574	-0.282096	0.633969	-0.00370098	0.0243647	-0.382525	-0.154657	-0.201853	0.0593129	0.30429	-0.262184	-0.0140995	1.90714	2.37611	-0.984005	-0.331913	-0.240569	1.15046	1.92619
0.096	-0.162325	0.0999496	-0.00255882	-4.97719	0.998666	0.181355	-0.189077	-0.175279	-0.055002	1.91896	-0.371905	-0.201636	-0.278866	0.903904	0.00820682	-0.294766	0.645657	-0.010514	0.0288992	-0.386147	-0.166239	-0.204166	0.0497217	0.256803	-0.248475	-0.0260881	1.84239	2.37613	-0.93077	-0.348176	-0.213779	1.16473	1.91784
0.1	-0.157187	0.105004	0.00216779	-4.94089	0.998324	0.18103	-0.156721	-0.184904	-0.050347	1.99661	-0.354511	-0.214621	-0.161285	0.873707	0.0150298	-0.303282	0.65965	-0.0154524	0.0406924	-0.403829	-0.177946	-0.207279	0.0410212	0.211432	-0.234536	-0.0368749	1.77506	2.34836	-0.87613	-0.364486	-0.186153	1.17801	1.91114
0.104	-0.155397	0.110646	0.008011	-4.90458	0.997597	0.180254	-0.119213	-0.197082	-0.0456757	2.06979	-0.355082	-0.236626	-0.203696	0.846585	0.0246023	-0.307205	0.673936	-0.016765	0.043919	-0.411772	-0.185093	-0.210049	0.0309018	0.169786	-0.221591	-0.0472031	1.70068	2.32554	-0.819048	-0.379035	-0.153146	1.1944	1.86602
0.108	-0.158517	0.117576	0.0181828	-4.86852	0.996204	0.178627	-0.0751486	-0.213162	-0.0409426	2.14352	-0.34412	-0.245741	-0.204738	0.826575	0.0414831	-0.303178	0.693935	-0.00266042	0.0373286	-0.381625	-0.1866	-0.212695	0.0166702	0.132062	-0.210089	-0.0587202	1.62125	2.304	-0.760277	-0.393112	-0.121316	1.20054	1.86825
0.112	-0.160449	0.116932	0.0343463	-4.83285	0.994577	0.177455	-0.0321887	-0.218375	-0.0403274	2.21231	-0.331649	-0.251193	-0.198266	0.806801	0.0543122	-0.289945	0.7239	0.0549116	0.0555931	-0.23195	-0.19084	-0.207332	-0.00393977	0.101981	-0.198174	-0.0714624	1.53354	2.28889	-0.699207	-0.406532	-0.0879691	1.21139	1.84842
0.116	-0.165679	0.112703	0.0543276	-4.79666	0.99234	0.176205	0.0139716	-0.22032	-0.0423046	2.27705	-0.314049	-0.254706	-0.191266	0.790158	0.0665503	-0.278682	0.766225	0.141277	0.0668521	-0.104924	-0.188687	-0.198015	-0.0273838	0.0730682	-0.186268	-0.0811057	1.4446	2.25081	-0.638048	-0.417294	-0.0604431	1.21275	1.87417
0.12	-0.16865	0.104617	0.0722711	-4.7604	0.990069	0.17572	0.0609481	-0.216878	-0.0423159	2.33805	-0.295808	-0.255356	-0.19304	0.769273	0.0736545	-0.267784	0.813413	0.226923	0.0619981	-0.105087	-0.187818	-0.185538	-0.050231	0.0501616	-0.174627	-0.0949393	1.34982	2.24542	-0.574544	-0.427353	-0.0302	1.21714	1.86315
0.124	-0.170374	0.0954388	0.0886844	-4.72473	0.987883	0.176093	0.11099	-0.211767	-0.0418231	2.39613	-0.279029	-0.25795	-0.195113	0.752387	0.0754076	-0.25417	0.864093	0.300832	0.049861	0.0320125	-0.188694	-0.174171	-0.0708499	0.0309036	-0.163194	-0.104857	1.25261	2.22957	-0.508506	-0.433037	-0.00884934	1.22551	1.83879
0.128	-0.172817	0.0839453	0.111836	-4.68867	0.985652	0.176205	0.161611	-0.205937	-0.0494326	2.44824	-0.263912	-0.261199	-0.230385	0.739305	0.0779652	-0.23274	0.913364	0.345996	0.0266614	0.0380559	-0.187826	-0.159266	-0.0994331	0.0134085	-0.154231	-0.109668	1.15101	2.2217	-0.441792	-0.439674	0.0170606	1.23271	1.80822
0.132	-0.172883	0.077858	0.138352	-4.65264	0.984055	0.175961	0.209726	-0.210139	-0.0603102	2.49285	-0.252112	-0.263376	-0.235518	0.720875	0.0861814	-0.206547	0.956056	0.376663	0.00548961	0.0346197	-0.191136	-0.149286	-0.132087	-0.00258319	-0.144699	-0.116891	1.05667	2.19782	-0.371071	-0.445656	0.0405979	1.2318	1.81106
